Coordinates
version=1
nRows=7
nColumns=33
inDegrees=yes

Units are S.I. units (second, meters, Newtons, ...)
Angles are in degrees.

endheader
time	ground_thorax_rot_x	ground_thorax_rot_y	ground_thorax_rot_z	ground_thorax_tx	ground_thorax_ty	ground_thorax_tz	clav_prot_r	clav_elev_r	scapula_abduction_r	scapula_elevation_r	scapula_upward_rot_r	scapula_winging_r	shoulder_elv_r	plane_of_elev_r	axial_rot_r	elbow_flexion_r	pro_sup_r	wrist_flex_r	wrist_dev_r	clav_prot_l	clav_elev_l	scapula_abduction_l	scapula_elevation_l	scapula_upward_rot_l	scapula_winging_l	shoulder_elv_l	plane_of_elev_l	axial_rot_l	elbow_flexion_l	pro_sup_l	wrist_flex_l	wrist_dev_l
      8.94000000	    -34.68144256	     -5.23274071	     12.86658808	    -95.59521732	    777.54812316	     19.35811611	      1.21032253	    -45.00000000	     45.00000000	    -45.00000000	     -4.28494539	   3142.41816663	  -1737.74242616	     28.38936509	     69.28557985	   1087.98850245	     22.07555587	     16.78317558	     12.48550101	     18.17339069	     36.35862681	    -45.00000000	    -37.62202152	    -32.20786983	  -1361.62322734	   2585.73077778	     24.14498921	    -38.15417047	   2170.37634967	     23.73955905	      8.31180491	    -17.00835263
      8.95000000	    -34.82346141	     -4.99798077	     12.36255665	    -93.29124959	    777.57635843	     19.67607812	      0.96251243	    -45.00000000	     45.00000000	    -45.00000000	     -3.57307151	   3142.54632404	  -1737.85341713	     28.52369317	     68.84465519	   1087.86823970	     22.27667327	     16.92835172	     12.58880811	     17.91437497	     36.37995345	    -45.00000000	    -37.31210524	    -31.22748772	  -1361.62909152	   2585.67945246	     24.04523193	    -38.53058512	   2170.20428335	     24.35658537	      8.23506402	    -17.00522958
      8.96000000	    -35.02310578	     -5.27986397	     12.48730414	    -91.28914587	    778.10282998	     20.06767751	      1.28087622	    -45.00000000	     45.00000000	    -45.00000000	     -3.94797434	   3142.59961440	  -1737.91004932	     28.77870475	     68.00390950	   1087.64824387	     21.85654581	     17.19326685	     12.88434534	     17.73307488	     36.12657521	    -45.00000000	    -37.28292282	    -31.44303770	  -1361.57056817	   2585.50358755	     24.31317684	    -38.63554427	   2169.93865805	     24.69737709	      8.14976379	    -16.90614626
      8.97000000	    -35.41435125	     -5.33461116	     12.33794998	    -89.62674182	    779.26458050	     20.55340138	      1.25371632	    -45.00000000	     45.00000000	    -45.00000000	     -3.74571569	   3142.67508671	  -1737.85976700	     28.92955673	     66.62464631	   1087.29554749	     20.73257790	     17.64503023	     13.58538316	     17.53803059	     36.45682960	    -45.00000000	    -37.08979659	    -31.12131572	  -1361.69771540	   2585.82709499	     24.15601534	    -38.44383040	   2169.84589162	     24.93841762	      8.05130203	    -16.89581995
      8.98000000	    -36.19509907	     -4.29809015	     10.64551619	    -88.32781468	    781.19782401	     21.14894496	      0.16035452	    -45.00000000	     45.00000000	    -45.00000000	     -1.18059060	   3143.12344865	  -1737.77263039	     28.71591728	     64.85380005	   1086.42732905	     12.43760905	     17.48406193	     15.93416648	     17.27001639	     37.06974737	    -45.00000000	    -37.01925619	    -28.40916758	  -1361.95210009	   2585.81298629	     23.74683888	    -38.42804723	   2169.67489286	     25.85130244	      8.13333288	    -17.03135591
      8.99000000	    -36.77972674	     -5.45300209	      9.51437854	    -92.29386145	    785.09165510	     10.47428669	      0.45605584	    -45.00000000	     45.00000000	    -45.00000000	     -2.10770269	   3143.92748905	  -1739.56097751	     27.22825490	     71.86602924	   1089.79472120	     17.65918680	     15.47019789	     11.66002511	     17.86093408	     36.25851370	    -45.00000000	    -35.96206026	    -27.53752679	  -1360.95466105	   2584.98762806	     24.24507845	    -38.73150569	   2169.05511717	     26.14712608	      8.40633182	    -16.89594180
      9.00000000	    -36.67783889	     -6.08706336	     10.13614278	    -90.94650693	    784.96576725	     10.73380927	      1.09231726	    -45.00000000	     45.00000000	    -45.00000000	     -3.38803402	   3143.82734116	  -1739.62918448	     27.60301342	     71.47300091	   1089.97039081	     19.17101012	     15.14355891	     11.46166926	     17.45515552	     36.19071841	    -45.00000000	    -35.70121507	    -28.38026393	  -1361.10205927	   2585.31714501	     24.08000479	    -38.33325500	   2169.11967962	     26.16114562	      8.00664697	    -16.80557495
